<svg xmlns="http://www.w3.org/2000/svg" viewBox="0 0 32 32" xml:space="preserve">
  <path d="M11.5 9c-.83 0-1.5.67-1.5 1.5s.67 1.5 1.5 1.5 1.5-.67 1.5-1.5S12.33 9 11.5 9zm0 0c-.83 0-1.5.67-1.5 1.5s.67 1.5 1.5 1.5 1.5-.67 1.5-1.5S12.33 9 11.5 9zm17.1 9.94c.22-.98 1.4-1.89 1.4-2.93 0-1.06-1.18-1.97-1.4-2.95-.23-1.02.44-2.36.01-3.28-.43-.93-1.88-1.22-2.5-2.02-.63-.8-.59-2.32-1.37-2.96-.8-.64-2.22-.27-3.13-.72-.9-.44-1.5-1.82-2.5-2.05-.09-.02-.19-.03-.3-.03-.89 0-1.88.79-2.81.79S14.08 2 13.19 2c-.11 0-.21.01-.3.03-1 .23-1.6 1.61-2.5 2.05-.91.45-2.33.08-3.11.72-.8.64-.76 2.16-1.39 2.96-.62.8-2.06 1.09-2.5 2.02-.43.92.24 2.26.01 3.28-.22.98-1.4 1.89-1.4 2.95 0 1.04 1.18 1.95 1.4 2.93.23 1.02-.44 2.36-.01 3.28.43.93 1.88 1.22 2.5 2.02.54.69.59 1.88 1.08 2.62.08.14.17.25.29.34.8.64 2.22.27 3.13.72.9.44 1.5 1.82 2.5 2.05.09.02.19.03.3.03h.06c.42-.01.87-.19 1.31-.37.43-.18.87-.36 1.29-.39.06-.01.1-.01.15-.01s.09 0 .15.01c.89.07 1.82.76 2.66.76.11 0 .21-.01.3-.03 1-.23 1.6-1.61 2.5-2.05.91-.45 2.33-.08 3.11-.72.12-.09.23-.22.31-.35.37-.54.49-1.33.74-1.97.1-.24.2-.46.34-.64.17-.22.4-.4.66-.56.67-.44 1.52-.79 1.84-1.46.43-.92-.24-2.26-.01-3.28zM8 10.5C8 8.57 9.57 7 11.5 7S15 8.57 15 10.5 13.43 14 11.5 14 8 12.43 8 10.5zM13 25h-2l8-18h2l-8 18zm7.5 0c-1.93 0-3.5-1.57-3.5-3.5s1.57-3.5 3.5-3.5 3.5 1.57 3.5 3.5-1.57 3.5-3.5 3.5zm0-5c-.83 0-1.5.67-1.5 1.5s.67 1.5 1.5 1.5 1.5-.67 1.5-1.5-.67-1.5-1.5-1.5zM13 10.5c0-.83-.67-1.5-1.5-1.5s-1.5.67-1.5 1.5.67 1.5 1.5 1.5 1.5-.67 1.5-1.5z"/>
</svg>
