<svg xmlns="http://www.w3.org/2000/svg" viewBox="0 0 32 32" xml:space="preserve"><path d="m16 4.704 3.529 3.529L16 11.762l-3.529-3.529L16 4.704M16 2a.296.296 0 0 0-.212.088L9.643 8.233 16 14.59l6.357-6.357-6.145-6.145A.296.296 0 0 0 16 2zM23.767 12.471 27.296 16l-3.529 3.529L20.238 16l3.529-3.529m0-2.829L17.41 16l6.357 6.357 6.145-6.145a.3.3 0 0 0 0-.424l-6.145-6.146zM8.233 12.472 11.762 16l-3.529 3.529L4.704 16l3.529-3.528m0-2.829-6.145 6.145a.3.3 0 0 0 0 .424l6.145 6.145L14.59 16 8.233 9.643zM16 20.238l3.529 3.529L16 27.296l-3.529-3.529L16 20.238m0-2.828-6.357 6.357 6.145 6.145A.296.296 0 0 0 16 30a.296.296 0 0 0 .212-.088l6.145-6.145L16 17.41z"/></svg>
