<svg xmlns="http://www.w3.org/2000/svg" viewBox="0 0 32 32" xml:space="preserve"><path d="M22.1 6c1.509 0 2.934.579 4.008 1.628a5.4 5.4 0 0 1 1.642 3.882 5.395 5.395 0 0 1-1.64 3.879l-1.529 1.494L16 25.313l-8.585-8.434-1.523-1.488A5.397 5.397 0 0 1 4.25 11.51c0-1.465.583-2.844 1.64-3.879A5.706 5.706 0 0 1 9.9 6a5.74 5.74 0 0 1 3.996 1.627l.702.69L16 9.694l1.402-1.377.703-.691A5.74 5.74 0 0 1 22.1 6m0-2c-1.946 0-3.913.74-5.398 2.2L16 6.89l-.702-.69A7.706 7.706 0 0 0 9.9 4c-1.966 0-3.913.74-5.408 2.2a7.408 7.408 0 0 0 0 10.62l1.525 1.49 9.772 9.6c.06.06.138.09.214.09a.28.28 0 0 0 .207-.09l9.772-9.6 1.525-1.49a7.408 7.408 0 0 0 0-10.62A7.708 7.708 0 0 0 22.1 4z"/></svg>
