<svg xmlns="http://www.w3.org/2000/svg" viewBox="0 0 32 32" xml:space="preserve">
  <path d="M15.887 2.028 2.173 8.436A.301.301 0 0 0 2 8.708v15.997a.3.3 0 0 0 .197.282l13.686 4.994a.298.298 0 0 0 .229-.01l13.714-6.398a.298.298 0 0 0 .174-.272V7.295a.3.3 0 0 0-.197-.282L16.117 2.018a.3.3 0 0 0-.23.01zm.203 2.156 9.16 3.34-9.32 4.35h-.01l-9.15-3.34 9.32-4.35zm6.91 12.1-2 .93v-5.51l2-.93v5.51zm-19 7.24v-13.7l.21-.09L15 13.664v13.608L4 23.524zm24-1.29-11 5.038V13.574l2-.94v7.71l6-2.8v-7.71l2.9-1.35.1.04v13.71z" fill="#E8E8E8"  fill-rule="evenodd" clip-rule="evenodd"/>
</svg>
