<svg xmlns="http://www.w3.org/2000/svg" viewBox="0 0 32 32" xml:space="preserve">
  <path d="M11.986 4c4.411 0 7.999 3.588 7.999 7.999a7.902 7.902 0 0 1-1.806 5.06l-.51.623-.623.51a7.905 7.905 0 0 1-5.06 1.806c-4.41 0-7.999-3.588-7.999-7.999S7.576 4 11.986 4m0-2c-5.522 0-9.999 4.477-9.999 9.999s4.477 9.999 9.999 9.999a9.96 9.96 0 0 0 6.327-2.258l8.173 8.173a.299.299 0 0 0 .424-.001l.99-.99a.3.3 0 0 0 0-.424l-8.173-8.173a9.959 9.959 0 0 0 2.258-6.326C21.985 6.477 17.508 2 11.986 2z"/>
  <path d="M6.987 10.999h9.999v2H6.987z"/>
</svg>
